<svg version="1.2" xmlns="http://www.w3.org/2000/svg" viewBox="0 0 789 789" width="789" height="789">
	<path fill="#6c4af3" d="m104 0v212c0 0 3.9 23.2 22 32l157 93c0 0 32.39 15.03 39-30v-158c0 0-4.19-26.48-19-33z" />
	<path fill="#6c4af3" d="m685 152v218.01c0 0 0.09 23.18-18.02 31.98l-208.96 122.99-0.01-240.95z" />
	<path fill="#6c4af3"
		d="m432.99 300.97l-186.96 111.05c0 0-21.43 9.85-20 29.92l-0.01 202.06c0 0-0.93 17.89 18.98 31.96 4.08 2.88 187.99 112.96 187.99 112.96l-0.02-222.88c0 0-157.9 92.04-162.98 94.99-7.33 4.25-17.34-2.23-18.02-7.02-1.16-8.17 4.02-10 4.02-10l176.98-106.05z" />
</svg>